<svg width="1440" height="1024" viewBox="0 0 1440 1024" fill="none" xmlns="http://www.w3.org/2000/svg">
<g id="page-3-leaves">
<g id="leaf-bottom-right">
<path id="Vector 1" d="M1446.95 1064C1364.95 1056 1351.11 957.333 1354.45 909C1377.78 909.833 1428.95 920.5 1446.95 956.5C1464.95 992.5 1454.45 1043.17 1446.95 1064Z" fill="#00575D"/>
<path id="Vector 2" d="M1446.95 1059C1400.95 1029 1427.78 1003.17 1446.95 994C1418.61 1000.67 1365.95 1006.5 1381.95 976.5C1397.95 946.5 1304.45 856.5 1401.95 956.5" stroke="white" stroke-width="3"/>
</g>
<g id="leaf-bottom-left">
<path id="Vector 1_2" d="M63.9467 911C-18.0533 919 -31.8867 1017.67 -28.5533 1066C-5.21999 1065.17 45.9467 1054.5 63.9467 1018.5C81.9467 982.5 71.4467 931.833 63.9467 911Z" fill="#00575D"/>
<path id="Vector 2_2" d="M63.9466 916C17.9466 946 44.7799 971.833 63.9466 981C35.6133 974.333 -17.0534 968.5 -1.05338 998.5C14.9466 1028.5 -78.5534 1118.5 18.9466 1018.5" stroke="white" stroke-width="3"/>
</g>
<g id="leaf-top-right">
<path id="Vector 1_3" d="M1449.95 -47C1367.95 -39 1354.11 59.6667 1357.45 108C1380.78 107.167 1431.95 96.5 1449.95 60.5C1467.95 24.5 1457.45 -26.1667 1449.95 -47Z" fill="#00575D"/>
<path id="Vector 2_3" d="M1449.95 -42C1403.95 -12 1430.78 13.8333 1449.95 23C1421.61 16.3333 1368.95 10.5 1384.95 40.5C1400.95 70.5 1307.45 160.5 1404.95 60.5" stroke="white" stroke-width="3"/>
</g>
<g id="leaf-top-left">
<path id="Vector 1_4" d="M-16.0613 -47C65.9387 -39 79.772 59.6667 76.4387 108C53.1054 107.167 1.93869 96.5 -16.0613 60.5C-34.0613 24.5 -23.5613 -26.1667 -16.0613 -47Z" fill="#00575D"/>
<path id="Vector 2_4" d="M-16.0612 -42C29.9388 -12 3.10546 13.8333 -16.0612 23C12.2721 16.3333 64.9388 10.5 48.9388 40.5C32.9388 70.5 126.439 160.5 28.9388 60.5" stroke="white" stroke-width="3"/>
</g>
</g>
</svg>
